<mxfile host="app.diagrams.net" modified="2023-12-13T13:56:38.155Z" agent="Mozilla/5.0 (X11; Ubuntu; Linux x86_64; rv:109.0) Gecko/20100101 Firefox/119.0" etag="8BzZOIrI4g95TAKKAK8g" version="22.1.8" type="device">
  <diagram name="Page-1" id="DZ0n9mGUMu2ledXb5pgK">
    <mxGraphModel dx="1137" dy="622" grid="1" gridSize="10" guides="1" tooltips="1" connect="1" arrows="1" fold="1" page="1" pageScale="1" pageWidth="827" pageHeight="1169" math="0" shadow="0">
      <root>
        <mxCell id="0" />
        <mxCell id="1" parent="0" />
        <mxCell id="zHPxPosOzjC5-cH20fPI-1" value="Client " style="shape=umlLifeline;perimeter=lifelinePerimeter;whiteSpace=wrap;html=1;container=1;dropTarget=0;collapsible=0;recursiveResize=0;outlineConnect=0;portConstraint=eastwest;newEdgeStyle={&quot;curved&quot;:0,&quot;rounded&quot;:0};participant=umlActor;size=80;" parent="1" vertex="1">
          <mxGeometry x="90" y="40" width="20" height="480" as="geometry" />
        </mxCell>
        <mxCell id="zHPxPosOzjC5-cH20fPI-2" value=":Systéme" style="shape=umlLifeline;perimeter=lifelinePerimeter;whiteSpace=wrap;html=1;container=1;dropTarget=0;collapsible=0;recursiveResize=0;outlineConnect=0;portConstraint=eastwest;newEdgeStyle={&quot;curved&quot;:0,&quot;rounded&quot;:0};" parent="1" vertex="1">
          <mxGeometry x="380" y="40" width="100" height="480" as="geometry" />
        </mxCell>
        <mxCell id="zHPxPosOzjC5-cH20fPI-4" value="3.Le client se connecte à son compte sur le site" style="html=1;verticalAlign=bottom;endArrow=block;curved=0;rounded=0;" parent="1" edge="1">
          <mxGeometry x="-0.0303" y="10" width="80" relative="1" as="geometry">
            <mxPoint x="100" y="340" as="sourcePoint" />
            <mxPoint x="430" y="340" as="targetPoint" />
            <mxPoint as="offset" />
          </mxGeometry>
        </mxCell>
        <mxCell id="zHPxPosOzjC5-cH20fPI-7" value="4.Le système confirme que le client a bien un compte" style="html=1;verticalAlign=bottom;endArrow=open;dashed=1;endSize=8;curved=0;rounded=0;" parent="1" edge="1">
          <mxGeometry x="0.0893" y="-10" relative="1" as="geometry">
            <mxPoint x="430.5" y="400" as="sourcePoint" />
            <mxPoint x="100" y="400" as="targetPoint" />
            <Array as="points">
              <mxPoint x="410.5" y="400" />
              <mxPoint x="280.5" y="400" />
            </Array>
            <mxPoint as="offset" />
          </mxGeometry>
        </mxCell>
        <mxCell id="zHPxPosOzjC5-cH20fPI-8" value="1.Le client sélectionne des produits et ajoute au panier." style="html=1;verticalAlign=bottom;endArrow=block;curved=0;rounded=0;" parent="1" edge="1">
          <mxGeometry width="80" relative="1" as="geometry">
            <mxPoint x="99.5" y="140" as="sourcePoint" />
            <mxPoint x="429.5" y="140" as="targetPoint" />
          </mxGeometry>
        </mxCell>
        <mxCell id="zHPxPosOzjC5-cH20fPI-9" value="2.Le système met ajour le panier " style="html=1;verticalAlign=bottom;endArrow=open;dashed=1;endSize=8;curved=0;rounded=0;" parent="1" edge="1">
          <mxGeometry relative="1" as="geometry">
            <mxPoint x="429.5" y="180" as="sourcePoint" />
            <mxPoint x="99.5" y="180" as="targetPoint" />
          </mxGeometry>
        </mxCell>
        <mxCell id="zHPxPosOzjC5-cH20fPI-11" value="5.Client sélectionne une méthode de paiement" style="html=1;verticalAlign=bottom;endArrow=block;curved=0;rounded=0;" parent="1" edge="1">
          <mxGeometry width="80" relative="1" as="geometry">
            <mxPoint x="100" y="480" as="sourcePoint" />
            <mxPoint x="430" y="480" as="targetPoint" />
          </mxGeometry>
        </mxCell>
        <mxCell id="zHPxPosOzjC5-cH20fPI-12" value="6.Le système valide le paiement avec succès" style="html=1;verticalAlign=bottom;endArrow=open;dashed=1;endSize=8;curved=0;rounded=0;" parent="1" edge="1">
          <mxGeometry relative="1" as="geometry">
            <mxPoint x="430" y="519" as="sourcePoint" />
            <mxPoint x="100" y="519" as="targetPoint" />
          </mxGeometry>
        </mxCell>
        <mxCell id="zHPxPosOzjC5-cH20fPI-13" value="&lt;div&gt;&lt;u&gt;&lt;b&gt;&lt;font style=&quot;font-size: 18px;&quot;&gt;Scénario happy day.&lt;/font&gt;&lt;/b&gt;&lt;/u&gt;&lt;/div&gt;&lt;div&gt;&lt;u&gt;&lt;font size=&quot;3&quot;&gt;&lt;b&gt;Flot Nominal&lt;/b&gt;&lt;br&gt;&lt;/font&gt;&lt;/u&gt;&lt;/div&gt;" style="text;strokeColor=none;align=center;fillColor=none;html=1;verticalAlign=middle;whiteSpace=wrap;rounded=0;" parent="1" vertex="1">
          <mxGeometry x="120" y="10" width="240" height="60" as="geometry" />
        </mxCell>
        <mxCell id="zHPxPosOzjC5-cH20fPI-14" value="&lt;font style=&quot;font-size: 18px;&quot;&gt;&lt;b&gt;&lt;u&gt;Flot alternatif&lt;/u&gt;&lt;/b&gt;&lt;/font&gt;" style="text;strokeColor=none;align=center;fillColor=none;html=1;verticalAlign=middle;whiteSpace=wrap;rounded=0;" parent="1" vertex="1">
          <mxGeometry x="200" y="560" width="130" height="60" as="geometry" />
        </mxCell>
        <mxCell id="zHPxPosOzjC5-cH20fPI-15" value="Client" style="shape=umlLifeline;perimeter=lifelinePerimeter;whiteSpace=wrap;html=1;container=1;dropTarget=0;collapsible=0;recursiveResize=0;outlineConnect=0;portConstraint=eastwest;newEdgeStyle={&quot;curved&quot;:0,&quot;rounded&quot;:0};participant=umlActor;" parent="1" vertex="1">
          <mxGeometry x="80" y="640" width="20" height="490" as="geometry" />
        </mxCell>
        <mxCell id="zHPxPosOzjC5-cH20fPI-16" value=":Systéme" style="shape=umlLifeline;perimeter=lifelinePerimeter;whiteSpace=wrap;html=1;container=1;dropTarget=0;collapsible=0;recursiveResize=0;outlineConnect=0;portConstraint=eastwest;newEdgeStyle={&quot;curved&quot;:0,&quot;rounded&quot;:0};" parent="1" vertex="1">
          <mxGeometry x="430" y="640" width="100" height="480" as="geometry" />
        </mxCell>
        <mxCell id="zHPxPosOzjC5-cH20fPI-19" value="Le système&amp;nbsp; est redirigé le client vers la page d&#39;inscription&lt;br&gt;&lt;div&gt;&lt;br&gt;&lt;/div&gt;" style="html=1;verticalAlign=bottom;endArrow=open;dashed=1;endSize=8;curved=0;rounded=0;" parent="1" edge="1">
          <mxGeometry relative="1" as="geometry">
            <mxPoint x="480" y="700" as="sourcePoint" />
            <mxPoint x="90" y="700" as="targetPoint" />
          </mxGeometry>
        </mxCell>
        <mxCell id="zHPxPosOzjC5-cH20fPI-20" value="Le client met à jour son adresse." style="html=1;verticalAlign=bottom;endArrow=block;curved=0;rounded=0;" parent="1" edge="1">
          <mxGeometry x="-0.1795" width="80" relative="1" as="geometry">
            <mxPoint x="90" y="930" as="sourcePoint" />
            <mxPoint x="480" y="930" as="targetPoint" />
            <mxPoint as="offset" />
          </mxGeometry>
        </mxCell>
        <mxCell id="fFcW6IOromrVOFgJIXXQ-1" value="Le client vérifie des adresses" style="html=1;verticalAlign=bottom;endArrow=block;curved=0;rounded=0;edgeStyle=orthogonalEdgeStyle;" edge="1" parent="1">
          <mxGeometry width="80" relative="1" as="geometry">
            <mxPoint x="99.99666666666651" y="220" as="sourcePoint" />
            <mxPoint x="429.83" y="220" as="targetPoint" />
          </mxGeometry>
        </mxCell>
        <mxCell id="fFcW6IOromrVOFgJIXXQ-2" value="Le système confirmé que l&#39;adresse est à jour" style="html=1;verticalAlign=bottom;endArrow=open;dashed=1;endSize=8;curved=0;rounded=0;edgeStyle=orthogonalEdgeStyle;" edge="1" parent="1">
          <mxGeometry relative="1" as="geometry">
            <mxPoint x="429.83" y="270" as="sourcePoint" />
            <mxPoint x="99.99666666666651" y="270" as="targetPoint" />
          </mxGeometry>
        </mxCell>
        <mxCell id="fFcW6IOromrVOFgJIXXQ-5" value="Le client&amp;nbsp; s&#39;inscrit au site" style="html=1;verticalAlign=bottom;endArrow=block;curved=0;rounded=0;edgeStyle=orthogonalEdgeStyle;" edge="1" parent="1">
          <mxGeometry width="80" relative="1" as="geometry">
            <mxPoint x="100" y="750" as="sourcePoint" />
            <mxPoint x="480" y="750" as="targetPoint" />
          </mxGeometry>
        </mxCell>
        <mxCell id="fFcW6IOromrVOFgJIXXQ-6" value="2.2Le client n&#39;est pas compte" style="text;strokeColor=#9673a6;align=center;fillColor=#e1d5e7;html=1;verticalAlign=middle;whiteSpace=wrap;rounded=0;" vertex="1" parent="1">
          <mxGeometry x="480" y="710" width="110" height="30" as="geometry" />
        </mxCell>
        <mxCell id="fFcW6IOromrVOFgJIXXQ-7" value="2.2Le client à oublié son mot de passe" style="text;strokeColor=#9673a6;align=center;fillColor=#e1d5e7;html=1;verticalAlign=middle;whiteSpace=wrap;rounded=0;" vertex="1" parent="1">
          <mxGeometry x="480" y="790" width="130" height="30" as="geometry" />
        </mxCell>
        <mxCell id="fFcW6IOromrVOFgJIXXQ-8" value="Le système informe au client que son adresse n&#39;est pas correcte" style="html=1;verticalAlign=bottom;endArrow=open;dashed=1;endSize=8;curved=0;rounded=0;edgeStyle=orthogonalEdgeStyle;" edge="1" parent="1">
          <mxGeometry x="-0.0032" relative="1" as="geometry">
            <mxPoint x="460" y="884.58" as="sourcePoint" />
            <mxPoint x="90" y="884.7500000000001" as="targetPoint" />
            <mxPoint as="offset" />
          </mxGeometry>
        </mxCell>
        <mxCell id="fFcW6IOromrVOFgJIXXQ-14" value="&lt;p id=&quot;docs-internal-guid-f07580f6-7fff-bb3f-8839-13efe903476d&quot; style=&quot;line-height:1.2;margin-top:1pt;margin-bottom:7pt;&quot; dir=&quot;ltr&quot;&gt;Le système envoie un mail&amp;nbsp; au client pour modifier son mot de passe.&lt;/p&gt;" style="html=1;verticalAlign=bottom;endArrow=open;dashed=1;endSize=8;curved=0;rounded=0;edgeStyle=orthogonalEdgeStyle;entryX=0.5;entryY=0.388;entryDx=0;entryDy=0;entryPerimeter=0;" edge="1" parent="1">
          <mxGeometry x="0.0012" relative="1" as="geometry">
            <mxPoint x="450" y="804.58" as="sourcePoint" />
            <mxPoint x="90" y="804.6999999999999" as="targetPoint" />
            <mxPoint as="offset" />
          </mxGeometry>
        </mxCell>
        <mxCell id="fFcW6IOromrVOFgJIXXQ-18" value="Le client actualise son nouveau mot de passe." style="html=1;verticalAlign=bottom;endArrow=block;curved=0;rounded=0;edgeStyle=orthogonalEdgeStyle;" edge="1" parent="1">
          <mxGeometry width="80" relative="1" as="geometry">
            <mxPoint x="90.5" y="840" as="sourcePoint" />
            <mxPoint x="480" y="840.4200000000002" as="targetPoint" />
          </mxGeometry>
        </mxCell>
        <mxCell id="fFcW6IOromrVOFgJIXXQ-19" value="3.1&amp;nbsp;L’adresse n’est pas à jour." style="text;strokeColor=#b85450;align=center;fillColor=#f8cecc;html=1;verticalAlign=middle;whiteSpace=wrap;rounded=0;" vertex="1" parent="1">
          <mxGeometry x="500" y="880" width="160" height="30" as="geometry" />
        </mxCell>
        <mxCell id="fFcW6IOromrVOFgJIXXQ-20" value="&lt;p id=&quot;docs-internal-guid-5847399a-7fff-e707-91d8-4a3919489a0a&quot; style=&quot;line-height:1.2;margin-top:1pt;margin-bottom:7pt;&quot; dir=&quot;ltr&quot;&gt;4.1 Méthode de paiement n’est pas disponible.&lt;/p&gt;" style="text;strokeColor=#6c8ebf;align=center;fillColor=#dae8fc;html=1;verticalAlign=middle;whiteSpace=wrap;rounded=0;" vertex="1" parent="1">
          <mxGeometry x="490" y="1000" width="190" height="40" as="geometry" />
        </mxCell>
        <mxCell id="fFcW6IOromrVOFgJIXXQ-22" value="&lt;p id=&quot;docs-internal-guid-d43085ac-7fff-2528-aa45-ac9a5ef6bd68&quot; style=&quot;line-height:1.2;margin-top:1pt;margin-bottom:7pt;&quot; dir=&quot;ltr&quot;&gt;Le système informe&amp;nbsp; au client que la méthode de paiement&amp;nbsp; n&#39;est pas disponible.&lt;/p&gt;" style="html=1;verticalAlign=bottom;endArrow=open;dashed=1;endSize=8;curved=0;rounded=0;edgeStyle=orthogonalEdgeStyle;" edge="1" parent="1">
          <mxGeometry x="-0.1429" y="-10" relative="1" as="geometry">
            <mxPoint x="440" y="1010" as="sourcePoint" />
            <mxPoint x="90" y="1010" as="targetPoint" />
            <mxPoint as="offset" />
          </mxGeometry>
        </mxCell>
      </root>
    </mxGraphModel>
  </diagram>
</mxfile>
